<svg xmlns="http://www.w3.org/2000/svg" width="23.002" height="23.002" viewBox="0 0 23.002 23.002">
  <path id="Icon_simple-instagram" data-name="Icon simple-instagram" d="M11.5,0C8.377,0,7.986.014,6.76.069A8.481,8.481,0,0,0,3.968.6,5.632,5.632,0,0,0,1.93,1.93,5.612,5.612,0,0,0,.6,3.968,8.456,8.456,0,0,0,.069,6.76C.012,7.986,0,8.377,0,11.5s.014,3.515.069,4.741A8.486,8.486,0,0,0,.6,19.034,5.64,5.64,0,0,0,1.93,21.072,5.624,5.624,0,0,0,3.968,22.4a8.491,8.491,0,0,0,2.792.535C7.986,22.99,8.377,23,11.5,23s3.515-.014,4.741-.069a8.511,8.511,0,0,0,2.792-.535A5.878,5.878,0,0,0,22.4,19.034a8.486,8.486,0,0,0,.535-2.792C22.99,15.015,23,14.625,23,11.5s-.014-3.515-.069-4.741A8.505,8.505,0,0,0,22.4,3.968,5.645,5.645,0,0,0,21.072,1.93,5.6,5.6,0,0,0,19.034.6,8.461,8.461,0,0,0,16.242.069C15.015.012,14.625,0,11.5,0Zm0,2.07c3.07,0,3.436.015,4.648.068a6.337,6.337,0,0,1,2.134.4,3.785,3.785,0,0,1,2.183,2.182,6.35,6.35,0,0,1,.4,2.134c.055,1.213.067,1.578.067,4.648s-.014,3.436-.071,4.648a6.472,6.472,0,0,1-.4,2.134,3.652,3.652,0,0,1-.862,1.325,3.588,3.588,0,0,1-1.323.859,6.4,6.4,0,0,1-2.142.4c-1.221.055-1.58.067-4.657.067s-3.437-.014-4.657-.071a6.521,6.521,0,0,1-2.143-.4,3.562,3.562,0,0,1-1.322-.862,3.492,3.492,0,0,1-.863-1.323,6.527,6.527,0,0,1-.4-2.142c-.043-1.208-.058-1.58-.058-4.643s.015-3.437.058-4.659a6.52,6.52,0,0,1,.4-2.141,3.409,3.409,0,0,1,.863-1.324A3.4,3.4,0,0,1,4.672,2.5,6.366,6.366,0,0,1,6.8,2.1c1.222-.043,1.581-.058,4.657-.058l.043.029Zm0,3.525A5.906,5.906,0,1,0,17.407,11.5,5.905,5.905,0,0,0,11.5,5.6Zm0,9.739A3.834,3.834,0,1,1,15.335,11.5,3.833,3.833,0,0,1,11.5,15.335Zm7.52-9.972a1.38,1.38,0,1,1-1.38-1.379A1.381,1.381,0,0,1,19.021,5.362Z" fill="#9426b2"/>
</svg>
