<svg xmlns="http://www.w3.org/2000/svg" width="22.021" height="22.02" viewBox="0 0 22.021 22.02">
  <path id="Icon_awesome-linkedin-in" data-name="Icon awesome-linkedin-in" d="M4.929,22.021H.364V7.319H4.929ZM2.644,5.314A2.657,2.657,0,1,1,5.288,2.645,2.666,2.666,0,0,1,2.644,5.314ZM22.016,22.021H17.46V14.864c0-1.706-.034-3.893-2.374-3.893-2.374,0-2.737,1.853-2.737,3.77v7.28H7.789V7.319h4.379V9.325h.064a4.8,4.8,0,0,1,4.32-2.374c4.62,0,5.47,3.043,5.47,6.995v8.076Z" transform="translate(0 -0.001)" fill="#9426b2"/>
</svg>
